<svg width="25" height="23" viewBox="0 0 25 23" fill="none" xmlns="http://www.w3.org/2000/svg">
<path d="M22.9219 13.4668L24.9737 4.43898C25.1218 3.78715 24.6263 3.16645 23.9579 3.16645H6.91007L6.51224 1.22157C6.41311 0.736806 5.98655 0.388672 5.49171 0.388672H1.04167C0.466363 0.388672 0 0.855035 0 1.43034V2.12478C0 2.70009 0.466363 3.16645 1.04167 3.16645H4.07478L7.12374 18.0725C6.39431 18.492 5.90278 19.2785 5.90278 20.1803C5.90278 21.5227 6.99097 22.6109 8.33333 22.6109C9.67569 22.6109 10.7639 21.5227 10.7639 20.1803C10.7639 19.5 10.4841 18.8854 10.0337 18.4442H19.1329C18.6826 18.8854 18.4028 19.5 18.4028 20.1803C18.4028 21.5227 19.491 22.6109 20.8333 22.6109C22.1757 22.6109 23.2639 21.5227 23.2639 20.1803C23.2639 19.218 22.7045 18.3864 21.8933 17.9926L22.1327 16.939C22.2809 16.2872 21.7854 15.6664 21.117 15.6664H9.46688L9.18281 14.2776H21.9061C22.3925 14.2776 22.8141 13.941 22.9219 13.4668Z" fill="white"/>
</svg>
