<svg width="10" height="11" viewBox="0 0 10 11" fill="none" xmlns="http://www.w3.org/2000/svg">
<path d="M10 5.5C10 8.26204 7.76123 10.5 5 10.5C2.23877 10.5 0 8.26204 0 5.5C0 2.73958 2.23877 0.5 5 0.5C7.76123 0.5 10 2.73958 10 5.5ZM5 6.50806C4.4878 6.50806 4.07258 6.92329 4.07258 7.43548C4.07258 7.94768 4.4878 8.3629 5 8.3629C5.5122 8.3629 5.92742 7.94768 5.92742 7.43548C5.92742 6.92329 5.5122 6.50806 5 6.50806ZM4.1195 3.17448L4.26905 5.91641C4.27605 6.04472 4.38214 6.14516 4.51062 6.14516H5.48938C5.61786 6.14516 5.72395 6.04472 5.73095 5.91641L5.8805 3.17448C5.88806 3.03589 5.77772 2.91935 5.63893 2.91935H4.36105C4.22226 2.91935 4.11194 3.03589 4.1195 3.17448Z" fill="#FF0000"/>
</svg>
