<svg width="25" height="24" viewBox="0 0 25 24" fill="" xmlns="http://www.w3.org/2000/svg">
<path d="M24.5996 12C24.5996 10.4241 24.2892 8.86371 23.6862 7.4078C23.0831 5.95189 22.1992 4.62902 21.0849 3.51472C19.9706 2.40042 18.6477 1.5165 17.1918 0.913446C15.7359 0.310389 14.1755 0 12.5996 0C9.41701 0 6.36476 1.26428 4.11433 3.51472C1.86389 5.76516 0.599609 8.8174 0.599609 12C0.599609 15.1826 1.86389 18.2348 4.11433 20.4853C6.36476 22.7357 9.41701 24 12.5996 24C15.7822 24 18.8345 22.7357 21.0849 20.4853C23.3353 18.2348 24.5996 15.1826 24.5996 12ZM22.1156 10.8H18.5996C18.4017 7.97777 17.4347 5.26362 15.8036 2.952C17.4794 3.54716 18.9569 4.59608 20.0714 5.98181C21.1859 7.36754 21.8936 9.0356 22.1156 10.8ZM9.09561 13.2H16.1996C15.8925 16.1647 14.6289 18.9489 12.5996 21.132C10.5717 18.958 9.33704 16.1632 9.09561 13.2ZM9.09561 10.8C9.37507 7.85019 10.6047 5.07086 12.5996 2.88C14.6453 5.04735 15.9118 7.83365 16.1996 10.8H9.09561ZM9.52761 2.916C7.88787 5.24043 6.90537 7.96406 6.68361 10.8H3.08361C3.3103 9.0138 4.03474 7.32735 5.17421 5.93325C6.31368 4.53915 7.82224 3.4936 9.52761 2.916ZM3.08361 13.2H6.68361C6.88124 16.0335 7.85707 18.7575 9.50361 21.072C7.80438 20.4916 6.30199 19.4462 5.16713 18.0547C4.03227 16.6632 3.31043 14.9812 3.08361 13.2ZM15.7436 21.06C17.3857 18.7448 18.3724 16.0293 18.5996 13.2H22.1396C21.9127 14.9763 21.1934 16.6537 20.0632 18.0427C18.9329 19.4316 17.4367 20.4768 15.7436 21.06Z" fill=""/>
</svg>
