<svg width="12" height="12" viewBox="0 0 12 12" fill="none" xmlns="http://www.w3.org/2000/svg">
<path d="M11.5714 10.2857H0.428571C0.314907 10.2857 0.205898 10.3309 0.125526 10.4112C0.0451529 10.4916 0 10.6006 0 10.7143L0 11.5714C0 11.6851 0.0451529 11.7941 0.125526 11.8745C0.205898 11.9548 0.314907 12 0.428571 12H11.5714C11.6851 12 11.7941 11.9548 11.8745 11.8745C11.9548 11.7941 12 11.6851 12 11.5714V10.7143C12 10.6006 11.9548 10.4916 11.8745 10.4112C11.7941 10.3309 11.6851 10.2857 11.5714 10.2857ZM11.5714 6.85714H0.428571C0.314907 6.85714 0.205898 6.9023 0.125526 6.98267C0.0451529 7.06304 0 7.17205 0 7.28571L0 8.14286C0 8.25652 0.0451529 8.36553 0.125526 8.4459C0.205898 8.52628 0.314907 8.57143 0.428571 8.57143H11.5714C11.6851 8.57143 11.7941 8.52628 11.8745 8.4459C11.9548 8.36553 12 8.25652 12 8.14286V7.28571C12 7.17205 11.9548 7.06304 11.8745 6.98267C11.7941 6.9023 11.6851 6.85714 11.5714 6.85714ZM11.5714 3.42857H0.428571C0.314907 3.42857 0.205898 3.47372 0.125526 3.5541C0.0451529 3.63447 0 3.74348 0 3.85714L0 4.71429C0 4.82795 0.0451529 4.93696 0.125526 5.01733C0.205898 5.0977 0.314907 5.14286 0.428571 5.14286H11.5714C11.6851 5.14286 11.7941 5.0977 11.8745 5.01733C11.9548 4.93696 12 4.82795 12 4.71429V3.85714C12 3.74348 11.9548 3.63447 11.8745 3.5541C11.7941 3.47372 11.6851 3.42857 11.5714 3.42857ZM11.5714 0H0.428571C0.314907 0 0.205898 0.0451529 0.125526 0.125526C0.0451529 0.205898 0 0.314907 0 0.428571L0 1.28571C0 1.39938 0.0451529 1.50839 0.125526 1.58876C0.205898 1.66913 0.314907 1.71429 0.428571 1.71429H11.5714C11.6851 1.71429 11.7941 1.66913 11.8745 1.58876C11.9548 1.50839 12 1.39938 12 1.28571V0.428571C12 0.314907 11.9548 0.205898 11.8745 0.125526C11.7941 0.0451529 11.6851 0 11.5714 0Z" fill="black" fill-opacity="0.87"/>
</svg>
