<svg width="15" height="15" viewBox="0 0 15 15" fill="none" xmlns="http://www.w3.org/2000/svg">
<path d="M7.49658 0.090332C3.62759 0.090332 0.487549 3.23038 0.487549 7.09936C0.487549 10.9683 3.62759 14.1084 7.49658 14.1084C11.3656 14.1084 14.5056 10.9683 14.5056 7.09936C14.5056 3.23038 11.3656 0.090332 7.49658 0.090332ZM7.49658 2.89394C8.84932 2.89394 9.94974 3.99436 9.94974 5.3471C9.94974 6.69985 8.84932 7.80026 7.49658 7.80026C6.14384 7.80026 5.04342 6.69985 5.04342 5.3471C5.04342 3.99436 6.14384 2.89394 7.49658 2.89394ZM7.49658 12.7066C6.07375 12.7066 4.39158 12.1318 3.19303 10.688C4.37756 9.76279 5.87048 9.20207 7.49658 9.20207C9.12267 9.20207 10.6156 9.76279 11.8001 10.688C10.6016 12.1318 8.91941 12.7066 7.49658 12.7066Z" fill="#323232"/>
</svg>
