<svg width="12" height="13" viewBox="0 0 12 13" fill="none" xmlns="http://www.w3.org/2000/svg">
<path d="M11.3805 6.27405C11.3805 9.55412 8.92601 12.2131 5.89825 12.2131C2.87049 12.2131 0.416016 9.55412 0.416016 6.27405C0.416016 2.99397 2.87049 0.334961 5.89825 0.334961C8.92601 0.334961 11.3805 2.99397 11.3805 6.27405ZM5.26412 9.41875L9.33159 5.01233C9.4697 4.8627 9.4697 4.62008 9.33159 4.47046L8.8314 3.92859C8.69328 3.77894 8.46933 3.77894 8.33119 3.92859L5.01402 7.52217L3.46531 5.8444C3.32719 5.69477 3.10324 5.69477 2.9651 5.8444L2.46491 6.38627C2.32679 6.53589 2.32679 6.77851 2.46491 6.92814L4.76391 9.41872C4.90205 9.56837 5.12598 9.56837 5.26412 9.41875Z" fill="black"/>
</svg>
