<svg width="9" height="9" viewBox="0 0 9 9" fill="none" xmlns="http://www.w3.org/2000/svg">
<path d="M8.84844 6.44868C8.99907 6.58927 8.99907 6.81661 8.84844 6.95719L7.5793 8.13873C7.42867 8.27932 7.1851 8.27932 7.03447 8.13873L4.95129 6.17648L2.8649 8.13873C2.71427 8.27932 2.4707 8.27932 2.32007 8.13873L1.05413 6.9542C0.903505 6.81361 0.903505 6.58628 1.05413 6.44569L3.15654 4.50139L1.05413 2.5541C0.903505 2.41351 0.903505 2.18617 1.05413 2.04559L2.32327 0.861056C2.4739 0.720468 2.71747 0.720468 2.8681 0.861056L4.95129 2.8263L7.03767 0.864047C7.1883 0.723459 7.43187 0.723459 7.5825 0.864047L8.85164 2.04858C9.00227 2.18916 9.00227 2.4165 8.85164 2.55709L6.74603 4.50139L8.84844 6.44868Z" fill="white"/>
</svg>
