<svg width="21" height="18" viewBox="0 0 21 18" fill="none" xmlns="http://www.w3.org/2000/svg">
<path d="M10.4999 -0.0078125C5.16837 -0.0078125 0.848633 4.02394 0.848633 9.00008C0.848633 13.9762 5.16837 18.008 10.4999 18.008C15.8315 18.008 20.1512 13.9762 20.1512 9.00008C20.1512 4.02394 15.8315 -0.0078125 10.4999 -0.0078125ZM15.2322 11.3646C15.4151 11.5354 15.4151 11.8114 15.2322 11.9821L13.6911 13.4168C13.5082 13.5876 13.2124 13.5876 13.0295 13.4168L10.4999 11.0341L7.96647 13.4168C7.78356 13.5876 7.4878 13.5876 7.30489 13.4168L5.76769 11.9785C5.58478 11.8078 5.58478 11.5317 5.76769 11.361L8.32061 9.00008L5.76769 6.63551C5.58478 6.46479 5.58478 6.18874 5.76769 6.01803L7.30878 4.57967C7.49169 4.40896 7.78746 4.40896 7.97036 4.57967L10.4999 6.96604L13.0334 4.5833C13.2163 4.41259 13.5121 4.41259 13.695 4.5833L15.2361 6.02166C15.419 6.19238 15.419 6.46842 15.2361 6.63914L12.6793 9.00008L15.2322 11.3646Z" fill="#ffffff"/>
</svg>
